<svg width="44" height="44" viewBox="0 0 44 44" fill="none" xmlns="http://www.w3.org/2000/svg">
<path fill-rule="evenodd" clip-rule="evenodd" d="M22 44C9.84978 44 0 34.1502 0 22C0 9.84978 9.84978 0 22 0C34.1502 0 44 9.84978 44 22C44 34.1502 34.1502 44 22 44ZM21.8804 10.7059C28.3594 10.7059 30.5872 15.0444 32.4017 18.1636C34.9838 22.6019 35.2548 25.6135 40.9838 27.9364C41.6087 24.9222 41.6087 25.245 41.6087 21.8804C41.6087 10.9849 32.7759 2.15217 21.8804 2.15217C10.9849 2.15217 2.15217 10.9849 2.15217 21.8804C2.15217 24.6567 1.76885 25.1309 2.76172 27.9364C7.7727 26.2895 10.1169 20.9557 11.0524 18.5759C12.3738 15.2147 15.4014 10.7059 21.8804 10.7059ZM22 16.5921C17.9042 16.5921 14.5456 24.2495 13.6474 26.0808C12.7492 27.9123 9.68167 32.1654 5.4438 33.2312C8.97863 38.544 15.0207 42.0451 21.8804 42.0451C28.6832 42.0451 34.6816 38.6021 38.2283 33.3635C34.6816 30.7861 32.8142 29.7012 30.2101 26.0808C28.0593 23.0907 26.0958 16.5921 22 16.5921Z" fill="white"/>
</svg>
