<svg width="34" height="34" viewBox="0 0 34 34" fill="none" xmlns="http://www.w3.org/2000/svg">
<path fill-rule="evenodd" clip-rule="evenodd" d="M17 34C7.6112 34 0 26.3888 0 17C0 7.6112 7.6112 0 17 0C26.3888 0 34 7.6112 34 17C34 26.3888 26.3888 34 17 34ZM16.9076 8.27272C21.9141 8.27272 23.6355 11.6252 25.0377 14.0355C27.033 17.4651 27.2423 19.7922 31.6693 21.5872C32.1522 19.258 32.1522 19.5075 32.1522 16.9076C32.1522 8.48836 25.3269 1.66304 16.9076 1.66304C8.48836 1.66304 1.66304 8.48836 1.66304 16.9076C1.66304 19.0529 1.36684 19.4194 2.13405 21.5872C6.00617 20.3146 7.8176 16.1931 8.54047 14.3541C9.56158 11.7568 11.9011 8.2729 16.9076 8.2729V8.27272ZM17 12.8211C13.835 12.8211 11.2398 18.7383 10.5457 20.1533C9.85168 21.5686 7.48129 24.8551 4.20658 25.6787C6.93803 29.784 11.6069 32.4894 16.9076 32.4894C22.1643 32.4894 26.7994 29.8289 29.5401 25.7809C26.7994 23.7893 25.3564 22.9509 23.3441 20.1533C21.6822 17.8428 20.165 12.8211 17 12.8211Z" fill="#F5A70F"/>
</svg>
